<svg xmlns="http://www.w3.org/2000/svg" width="13" height="14" viewBox="0 0 13 14" fill="none">
<path d="M7.39157 1.39142C7.91746 1.14754 8.43876 1.02377 8.94977 0.892571C9.7972 0.680128 10.6458 0.973811 11.2733 1.4201C12.0537 2.08961 12.1098 2.81863 12.2665 3.47506C12.3075 3.70466 12.2694 3.69446 12.276 3.75911C12.292 3.9356 12.345 4.03523 12.3578 4.16337C12.3631 4.21661 12.3679 4.26957 12.3724 4.32219C12.4237 4.92083 12.3679 5.4921 12.219 6.05484C12.0328 6.6834 12.0119 6.35096 11.9199 6.55523C11.7211 6.94235 11.9791 6.64687 11.9451 6.81858C11.9076 6.90743 11.8676 6.99547 11.8253 7.08207C11.6178 7.50683 11.3053 7.81297 11.0148 8.07948C11.092 7.98722 11.1694 7.89196 11.2453 7.7925C11.0932 7.95297 10.8596 8.14708 11.0889 7.87058C11.0262 7.92038 10.9655 7.96399 10.9012 8.01234C10.9202 8.06485 10.6502 8.31957 10.6447 8.36276C10.6393 8.40752 10.7889 8.26253 10.7895 8.26514C10.8005 8.29439 10.4225 8.60405 10.219 8.76494C10.2109 8.77251 10.1844 8.79188 10.1752 8.79809C10.1025 8.8392 10.0476 8.86964 10.0347 8.87663C9.89337 8.95319 9.97977 8.82593 9.86561 8.90255C9.67014 9.03278 9.86897 9.0568 9.51038 9.0827C9.4298 9.19535 9.40658 9.17679 9.26684 9.25672C9.24854 9.26718 9.27867 9.28554 9.27114 9.29102C9.07374 9.43628 9.20498 9.28998 9.20222 9.28796C9.15544 9.2539 8.94387 9.407 8.89374 9.43001C8.26541 9.72102 7.80352 9.92565 7.14516 10.231C7.00355 10.298 6.57777 10.5173 6.43358 10.5675C6.29198 10.6182 6.35098 10.5511 6.27179 10.5644C6.1918 10.6979 6.08324 10.7553 5.79716 10.7978C5.72212 10.8975 5.71591 10.8428 5.52988 10.9222C5.37599 10.9882 5.11678 11.1548 4.91782 11.1362C5.12461 11.085 5.09496 11.0594 5.31637 10.9685C5.39293 10.9451 6.1667 10.6533 6.08156 10.6074C6.03872 10.5866 5.7973 10.7159 5.7847 10.7128C5.71388 10.6978 5.83929 10.6007 5.96936 10.5669C5.94116 10.5865 5.90661 10.6085 5.87601 10.6287C6.17452 10.5634 5.91211 10.4676 6.18559 10.5318C6.21947 10.5393 6.21736 10.5627 6.26879 10.5642C6.27427 10.5524 6.21309 10.5545 6.25707 10.5319C6.30185 10.509 6.40625 10.5091 6.40566 10.4715C6.40517 10.417 6.2215 10.5167 6.20566 10.5197C6.20562 10.5201 6.20558 10.5204 6.20555 10.5207C6.06732 10.5491 6.33306 10.4353 6.34361 10.4249C6.41334 10.3605 6.34784 10.3627 6.45969 10.2853C6.52358 10.2413 6.70361 10.1693 6.76637 10.1345C6.82873 10.1001 6.71843 10.1251 6.75959 10.1002C6.8007 10.0755 6.8623 10.0666 6.91039 10.037C6.93094 10.0243 6.91833 10.0008 6.92839 9.99497C7.03613 9.93177 6.98667 10.0173 7.08695 9.96472C7.15214 9.93076 7.34866 9.77446 7.19039 9.83638C7.26078 9.79534 7.32971 9.75612 7.39981 9.7155C7.35081 9.73169 7.30132 9.75076 7.25279 9.76474C7.39433 9.70759 7.4344 9.63535 7.51733 9.58838C7.59998 9.54145 7.70148 9.54971 7.78117 9.47664C7.95154 9.3209 7.47574 9.6054 7.40928 9.6263C7.38372 9.63501 7.45521 9.54986 7.46863 9.54142C7.52839 9.50431 7.61602 9.49278 7.66332 9.46605C7.83198 9.37035 7.91712 9.27772 8.07435 9.18094C8.60087 8.85771 9.24294 8.44219 9.73729 8.11374L9.6795 8.15747C9.68805 8.14964 9.69651 8.1419 9.7049 8.13424C9.87113 7.98238 10.0022 7.92675 10.0755 7.85918C10.2466 7.7009 10.2406 7.65312 10.383 7.51593C10.5967 7.31253 10.88 7.05099 10.9856 6.8788C11.0198 6.82674 11.0413 6.77208 11.0546 6.72514C11.0767 6.65396 11.0873 6.59786 11.0963 6.57546C11.3211 6.03217 11.4599 5.32968 11.4535 4.85528C11.4538 4.63296 11.4841 4.52411 11.4794 4.47781C11.4767 4.45483 11.4737 4.43522 11.4705 4.41831C11.445 4.28163 11.4201 4.3116 11.404 4.16084C11.3936 4.06886 11.4257 4.04673 11.4254 4.03423C11.4208 3.92423 11.3715 3.91009 11.3559 3.82711C11.2641 3.35413 11.1775 2.88562 10.9846 2.51431C10.9706 2.48805 10.9896 2.48027 10.9792 2.46417C10.9332 2.39708 10.9255 2.44496 10.8796 2.38097C10.8232 2.30518 10.7654 2.24323 10.716 2.20636C10.6506 2.1584 10.5824 2.11228 10.5114 2.06938C10.4943 2.05916 10.4997 2.03162 10.4593 2.00968C10.4187 1.98803 10.3767 1.9941 10.3133 1.96302C10.1477 1.88281 9.98404 1.7968 9.79688 1.7635C9.76582 1.75809 9.72356 1.78393 9.67862 1.77912C9.53748 1.76095 9.32776 1.74585 9.2096 1.77347C9.19634 1.77624 9.18312 1.77922 9.16994 1.78241C8.69544 1.89893 8.26545 2.02498 7.88479 2.18684C7.79267 2.22613 7.70266 2.23854 7.65758 2.26193C7.55806 2.31528 7.64466 2.29741 7.54925 2.35472C7.45636 2.41255 7.3718 2.47602 7.29599 2.54633C6.70393 3.05715 6.28716 3.50494 6.0428 4.16013C5.96836 4.35235 5.90452 4.54919 5.85132 4.7499C5.74296 5.14675 5.69794 5.64757 5.64684 6.06325C5.6244 6.237 5.58308 6.26536 5.56781 6.39288C5.53702 6.62343 5.58849 6.66859 5.52656 6.95107C5.48168 7.12664 5.37029 7.38015 5.11881 7.56827C5.03708 7.65111 4.81173 7.68114 4.7247 7.63739C4.63433 7.60561 4.58968 7.56318 4.5601 7.53429C4.5232 7.49628 4.50697 7.4683 4.49756 7.45291C4.48094 7.42434 4.47489 7.40888 4.47036 7.39829C4.46132 7.37604 4.45855 7.36628 4.45564 7.35701C4.45027 7.33915 4.44778 7.3284 4.44548 7.31856C4.44105 7.29916 4.43833 7.28471 4.43568 7.27073C4.43053 7.24312 4.42636 7.21912 4.42194 7.19542C4.41002 7.13077 4.3986 7.07858 4.38681 7.02715C4.35888 6.91066 4.32494 6.81494 4.31018 6.64964C4.2933 6.45936 4.30339 6.20324 4.28619 6.01077C4.26125 5.72465 4.22601 5.45005 4.17108 5.18142C3.95882 4.18929 3.70963 3.03453 3.34766 2.29761C3.08985 1.88585 2.86506 1.49024 2.61413 1.24419C2.55748 1.18847 2.49807 1.14843 2.47288 1.13813C2.44287 1.12924 2.48633 1.13373 2.48754 1.12711C2.5016 1.10561 2.31507 1.2878 2.23372 1.43092C2.13544 1.58541 2.05295 1.75801 1.98514 1.9346C1.96735 1.98279 1.94573 1.90236 1.91381 2.03768C1.9115 2.0479 1.90911 2.05914 1.90664 2.07148C1.88499 2.18075 1.8843 2.34189 1.82196 2.5855C1.62355 3.3335 1.46048 4.05399 1.46525 4.82161C1.45507 5.54197 1.56772 6.25792 1.71389 6.97431C1.97712 8.23678 2.37387 9.49362 2.65323 10.7311C2.88236 11.7066 2.90144 12.6841 2.75971 13.5488C2.74381 13.6482 2.62457 13.6039 2.58735 13.5484C2.60656 13.4931 2.6304 13.4407 2.65235 13.3821C2.50285 13.322 2.5417 13.3324 2.53304 13.0672C2.52753 12.9043 2.47687 13.0388 2.45216 12.9542C2.42145 12.8432 2.29877 12.3272 2.40341 12.4179C2.3835 12.387 2.36451 12.359 2.34489 12.3291C2.28888 11.9521 2.21111 11.5907 2.11333 11.2326C2.09639 11.1709 2.06633 11.1734 2.04859 11.1102C2.02527 11.0276 2.01063 10.9531 1.99648 10.8766C1.98067 10.7918 1.96667 10.7076 1.94463 10.6152C1.92153 10.5183 1.88527 10.5148 1.85844 10.383C1.83203 10.253 1.87875 10.2477 1.79069 10.0842C1.75836 10.2104 1.68794 9.69227 1.64504 9.51245C1.63959 9.48978 1.5396 9.27886 1.52156 9.16716C1.5018 9.04821 1.49828 8.87301 1.44034 8.69434C1.41358 8.61254 1.36335 8.57407 1.34123 8.48164C1.32581 8.4172 1.34611 8.33732 1.33029 8.25522C1.31417 8.17194 1.24944 8.0094 1.24177 7.97495C1.21574 7.85992 1.26735 7.98174 1.25225 7.90293C1.17928 7.52395 1.10365 7.08076 1.01745 6.70349C1.00707 6.65813 0.988844 6.72683 0.986768 6.72101C0.893259 6.41042 0.962955 6.57474 0.974277 6.48328C0.982812 6.39736 0.877445 5.78685 0.828227 5.78649C0.89104 5.76007 0.825404 5.62802 0.820007 5.59103C0.798949 5.4512 0.858088 5.47399 0.830064 5.33871C0.820111 5.28934 0.788697 5.38925 0.785958 5.33547C0.779365 5.20128 0.834928 5.07792 0.836364 4.90306C0.83662 4.8767 0.825882 4.86167 0.817607 4.83561C0.812629 4.81961 0.80856 4.79958 0.808534 4.77084C0.806531 4.69393 0.847491 4.37375 0.786128 4.52056C0.838232 4.32656 0.813864 4.28651 0.833696 4.05974C0.839324 4.00194 0.890164 3.93337 0.891669 3.8107C0.89225 3.76956 0.849631 3.76464 0.857886 3.70285C0.877155 3.56115 0.942888 3.43614 0.979857 3.26133C1.04906 2.93405 1.11004 2.58551 1.20691 2.26143C1.23314 2.17334 1.26913 2.20632 1.30321 2.07764C1.30676 2.06382 1.3097 1.97345 1.32019 1.89144C1.32493 1.85742 1.33116 1.82574 1.33949 1.79924C1.35386 1.74002 1.48155 1.45446 1.51229 1.39972C1.55717 1.30627 1.52869 1.27201 1.56203 1.22355C1.66192 1.08689 1.64703 1.23566 1.67871 1.01941C1.7525 0.987557 1.81751 0.888614 1.88614 0.894689C1.8802 0.801912 1.97895 0.770949 2.07108 0.662781C2.11279 0.615608 2.14608 0.556031 2.20234 0.509593C2.26404 0.454652 2.33136 0.434008 2.36674 0.502894C2.44779 0.445252 2.79476 0.512405 2.82874 0.549324C2.96127 0.622218 2.87388 0.610436 2.96322 0.668724C2.97776 0.679866 2.98065 0.646623 3.06807 0.726128C3.13987 0.77271 3.4697 1.18181 3.47693 1.21088C3.64426 1.51769 3.3503 1.06889 3.27429 1.02956C3.27117 1.01468 3.26805 0.999887 3.26406 0.984365C3.16919 0.856969 3.18761 0.962309 3.22263 1.02377C3.25814 1.08529 3.35658 1.17272 3.37527 1.23015C3.38446 1.25869 3.3205 1.28321 3.276 1.21051C3.31407 1.29563 3.22231 1.2095 3.22839 1.24986C3.23836 1.29153 3.45833 1.6274 3.48879 1.61092C3.44897 1.54671 3.39592 1.46894 3.3537 1.40544C3.34746 1.28373 3.70855 1.41906 3.78185 1.70576C3.83162 1.89638 3.64374 1.68876 3.86255 1.96393C3.87893 1.98438 3.89834 2.01103 3.91691 2.03776C3.90313 2.01056 3.88789 1.98173 3.87365 1.95674C3.85476 1.92289 3.83664 1.88899 3.8164 1.85375C3.84617 1.82839 3.86022 1.90121 3.8863 1.94854C3.89375 1.96175 3.90173 1.97397 3.91074 1.98327C3.92121 1.99406 3.91174 1.9595 3.90758 1.93475C3.90597 1.91654 3.90828 1.90335 3.92788 1.92159C3.93567 1.92954 3.94596 1.94208 3.95918 1.96143C3.96949 2.11758 4.07237 2.17612 4.15209 2.37947C4.11908 2.32714 4.08566 2.27635 4.05046 2.22542C4.14319 2.57878 3.80868 1.81417 4.04569 2.46821C4.01477 2.39125 3.98513 2.3144 3.94793 2.23821C3.94098 2.28516 3.84761 2.25636 3.84749 2.29504C3.84684 2.39537 3.91855 2.51319 3.95243 2.62162C3.96751 2.66957 3.93836 2.64659 3.93967 2.65069C3.95921 2.71441 3.98246 2.69191 4.00293 2.74756C4.02948 2.81838 4.06577 3.03401 4.07822 3.0664C4.11192 3.15162 4.12442 2.98952 4.13098 2.99694C4.17451 3.04413 4.18533 3.16569 4.21871 3.14953C4.12382 2.87999 3.87458 2.08349 4.1775 2.77826C4.16836 2.56204 4.26712 2.59107 4.36313 2.87957C4.43979 3.11769 4.36264 2.97285 4.36411 3.10678C4.36537 3.12437 4.4359 3.44839 4.46406 3.45875C4.40423 3.46103 4.38093 3.5774 4.30452 3.52325C4.29338 3.51516 4.26227 3.38415 4.22741 3.44199C4.20989 3.4708 4.17564 3.5494 4.14286 3.54674C4.17069 3.56791 4.20135 3.58947 4.23013 3.61109C4.28585 3.8044 4.2696 3.83828 4.25618 3.95413C4.27136 3.94544 4.31634 3.82993 4.33136 3.98523C4.33191 3.99324 4.30894 4.00569 4.3145 4.08484C4.32567 4.24481 4.32493 4.27836 4.22555 4.17694C4.33911 4.48628 4.27288 4.57258 4.36271 4.89552C4.44332 4.81176 4.39807 4.69989 4.3147 4.40388C4.33406 4.38599 4.35471 4.37503 4.37417 4.35661C4.41041 4.76785 4.37275 4.5685 4.46494 4.78655C4.48788 4.84015 4.53316 5.14 4.57732 5.02857C4.58786 5.00189 4.54982 4.81726 4.57734 4.83383C4.58278 4.83655 4.6381 5.06077 4.63541 5.08147C4.63491 5.08613 4.63437 5.09056 4.6338 5.09478C4.59677 5.32937 4.48999 4.9199 4.60853 5.58759C4.61147 5.60649 4.6399 5.60981 4.6477 5.64681C4.66207 5.71598 4.62998 5.71995 4.64308 5.78181C4.65609 5.8435 4.7063 5.92753 4.67256 6.02488C4.61074 6.20157 4.54412 5.79941 4.56104 5.61827C4.47455 5.55117 4.54032 6.83853 4.56559 6.93526C4.57144 6.96507 4.57649 6.98845 4.58065 7.00596C4.59755 7.07678 4.59917 7.059 4.59515 7.00437C4.58766 6.90491 4.57022 6.68004 4.58534 6.6608C4.59578 6.64726 4.73735 6.64462 4.63676 6.50066C4.60691 6.45782 4.58184 6.64532 4.56033 6.53555C4.53899 6.4258 4.58326 6.46732 4.5857 6.45913C4.59414 6.43114 4.57233 6.31514 4.57741 6.29983C4.65401 6.06291 4.79133 6.07591 4.60776 6.39555C4.66043 6.5278 4.71579 6.21483 4.75565 6.38043C4.80373 6.5815 4.74966 6.73355 4.7489 6.75978C4.74158 7.03421 4.78956 6.78226 4.80493 6.98144C4.8072 7.00731 4.80942 7.04076 4.8125 7.08401C4.82129 7.1888 4.79242 7.11442 4.77321 7.07113C4.76361 7.0496 4.75612 7.03612 4.7554 7.05841C4.76889 7.09484 4.71385 7.09131 4.82963 7.3025C4.83831 7.31036 4.88488 7.31127 4.90042 7.29411C5.18704 6.9542 4.98803 7.11712 4.95199 7.05782C4.94029 7.04131 5.01318 6.8633 4.89089 7.09604C4.90249 7.11327 4.91474 7.14004 4.91639 7.16593C4.89509 7.183 4.85946 7.1946 4.82382 7.19796C4.94803 7.17931 4.89392 7.21945 4.90839 7.21223C4.91024 7.2137 4.91097 7.21301 4.91183 7.2123C4.91339 7.21059 4.91464 7.20773 4.91594 7.20471C4.9185 7.19862 4.92109 7.19182 4.9237 7.18501C4.92895 7.1715 4.93424 7.15789 4.93895 7.14554C4.94837 7.12078 4.9553 7.10034 4.9545 7.08895C4.95044 7.03227 4.94444 6.99479 4.93866 6.96681C4.92623 6.90411 4.9136 6.8853 4.94778 6.80738C4.88952 6.89097 4.91761 6.76059 4.90069 6.71364C4.83833 6.53833 4.83311 6.77465 4.87529 6.3672C4.84765 6.42167 4.82031 6.47085 4.79288 6.52373C4.78901 6.47519 4.78527 6.42678 4.78157 6.37818C4.84498 6.30231 4.8217 6.04373 4.90256 6.27438C4.90641 5.9912 4.88175 5.8759 4.82456 5.81842C4.81361 5.80739 4.80609 5.76532 4.8004 5.71547C4.78663 5.7263 4.74244 5.74244 4.73616 5.73518C4.68105 5.67022 4.75325 5.55344 4.78948 5.58661C4.78716 5.55152 4.78566 5.52366 4.78527 5.51383C4.78279 5.45125 4.82641 5.56927 4.83038 5.51787C4.83219 5.50071 4.80245 5.32641 4.8132 5.32137C4.88109 5.28985 4.88017 5.5667 4.83123 5.05782C4.82916 5.03944 4.82698 5.01992 4.82466 4.99919C4.80066 4.99892 4.79231 5.02881 4.78823 5.06587C4.78088 5.14025 4.78753 5.24298 4.73202 5.20576C4.69208 5.17915 4.6852 5.13219 4.68049 5.08604C4.67482 5.02915 4.67317 4.97265 4.6166 4.96546C4.62998 4.95054 4.64204 4.94273 4.65789 4.92896C4.57157 4.70906 4.6495 4.69031 4.6527 4.61674C4.6602 4.47389 4.51608 3.85451 4.57106 4.42656C4.54664 4.34665 4.52509 4.26429 4.50074 4.18483C4.63747 4.13434 4.59494 4.19611 4.52308 3.80111C4.50689 3.71416 4.56178 3.67044 4.46707 3.60505C4.54239 3.59809 4.43299 3.35553 4.43484 3.32967C4.4514 3.16149 4.67965 3.7083 4.56723 3.81218C4.63997 3.89557 4.57418 3.91116 4.60785 4.01567C4.65607 4.16687 4.67399 4.18574 4.66533 4.37973C4.77534 4.54549 4.53592 3.6661 4.74936 4.18388C4.80407 4.31803 4.89464 4.62724 4.98881 5.02831C5.13016 5.58746 5.15499 6.3412 5.22827 6.93515C5.2333 6.97126 5.23961 7.00905 5.24656 7.04448C5.25003 7.06212 5.25371 7.07938 5.25711 7.09325C5.25875 7.09996 5.26046 7.10619 5.26105 7.10747C5.26124 7.1078 5.26143 7.10749 5.25922 7.09994C5.25782 7.09554 5.25657 7.09058 5.25004 7.07417C5.24615 7.0651 5.24248 7.05454 5.22692 7.0268C5.22075 7.01648 5.20462 6.98696 5.16917 6.94881C5.14917 6.9283 5.10294 6.87886 5.01219 6.84302C4.93804 6.79563 4.67988 6.81417 4.59226 6.90728C4.61493 6.91379 4.69758 6.61824 4.7134 6.39538C4.73831 6.16215 4.75443 5.95427 4.76762 5.82373C4.84181 5.02326 4.9763 4.41239 5.19155 3.83297C5.35243 3.40296 5.58508 2.96675 5.96837 2.54058C6.05855 2.4141 6.74358 1.79044 6.65211 1.98238C6.64304 2.00671 6.37384 2.29178 6.66416 2.11515C6.5896 2.13187 6.71567 1.98465 6.72325 1.97176C6.72866 1.96347 6.73373 1.95553 6.7385 1.94792C6.99335 1.63275 6.79737 1.7082 7.39157 1.39142ZM9.30632 1.56634C9.23125 1.574 9.17151 1.58554 9.12406 1.59697C8.6966 1.70172 9.12543 1.65104 9.01512 1.79109C9.06435 1.77889 9.11333 1.76688 9.1631 1.75475C9.19962 1.74589 9.23632 1.73847 9.27343 1.73246C9.25191 1.72824 9.23053 1.72445 9.20851 1.72121C9.20843 1.72123 9.20834 1.72125 9.20825 1.72127C9.23705 1.66872 9.2699 1.61691 9.30632 1.56634ZM7.03836 9.82426C7.05786 9.79672 7.07694 9.76927 7.09863 9.74089C7.19063 9.7009 7.28196 9.66032 7.37354 9.61894C7.3679 9.63416 7.36266 9.64931 7.35698 9.66453C7.25084 9.71828 7.14481 9.77083 7.03836 9.82426ZM4.53114 5.51537C4.55729 5.36953 4.48079 5.39321 4.48624 5.20362C4.43191 5.23643 4.37895 5.27036 4.32492 5.30305C4.35492 5.43829 4.38161 5.46672 4.38485 5.61932C4.40177 5.59961 4.41867 5.57934 4.4356 5.55988C4.42853 5.53506 4.42058 5.50885 4.41381 5.48498C4.46196 5.43863 4.49945 5.68213 4.53133 5.51585C4.53126 5.51569 4.5312 5.51553 4.53114 5.51537ZM4.2279 4.08704C4.21851 4.01037 4.17391 3.70663 4.13943 3.67278C4.02615 3.55625 4.28077 4.37688 4.05916 3.78053C4.04856 3.78617 4.03678 3.78613 4.02559 3.78893C4.04946 3.90127 4.07296 4.01375 4.09607 4.1272C4.13941 4.11071 4.18453 4.10443 4.2279 4.08704ZM6.92697 2.62044C6.82701 2.69311 6.48177 3.10513 6.64193 3.01541C6.6854 2.98914 6.80223 2.76781 6.87579 2.70622C6.92208 2.66653 6.89921 2.74322 6.97844 2.65053C6.96225 2.64067 6.94624 2.62797 6.9268 2.62075C6.92686 2.62065 6.92691 2.62055 6.92697 2.62044ZM6.93119 2.29264C6.84501 2.38116 6.75777 2.47121 6.6726 2.56158C6.77036 2.53414 6.88187 2.39322 6.93429 2.43489C6.91235 2.46149 6.89091 2.48757 6.86917 2.51406C6.8404 2.52062 6.81165 2.52721 6.78325 2.5336C6.7301 2.63186 6.78774 2.60054 6.64024 2.72781C6.79528 2.71734 6.84102 2.74622 7.02649 2.44245C7.01646 2.51605 7.14263 2.59677 7.21297 2.45722C7.21935 2.4415 7.22475 2.42233 7.22918 2.39902C7.2336 2.37697 7.19865 2.39226 7.16881 2.40982C7.14473 2.42502 7.123 2.44011 7.12144 2.43946C7.07303 2.42097 7.11429 2.34258 7.06624 2.32728C7.04469 2.32038 6.97791 2.38189 6.94959 2.37031C6.93598 2.36459 6.97345 2.27856 6.93119 2.29264ZM7.26193 2.31412C7.25431 2.35638 7.38093 2.33856 7.45484 2.27564C7.57477 2.17586 7.33095 2.25026 7.26193 2.31412ZM7.03779 9.82461C7.03798 9.82449 7.03817 9.82438 7.03836 9.82426C7.03828 9.82437 7.03821 9.82447 7.03814 9.82457C7.03802 9.82458 7.03791 9.8246 7.03779 9.82461ZM4.28324 4.48141C4.24084 4.39795 4.21483 4.26641 4.17991 4.28445C4.17752 4.2399 4.17478 4.19491 4.17213 4.15038C4.1611 4.15336 4.15013 4.15675 4.13921 4.1597C4.16206 4.29007 4.18373 4.42033 4.20434 4.5511C4.23075 4.5285 4.25751 4.50702 4.28324 4.48141ZM3.95723 3.07636C3.91317 2.91664 3.90377 3.06458 3.86939 3.03703C3.83536 3.00978 3.8109 2.86496 3.78187 2.89232C3.80968 2.98344 3.83769 3.08038 3.86385 3.1748C3.89397 3.13889 3.92691 3.1103 3.95713 3.07604C3.95716 3.07615 3.9572 3.07625 3.95723 3.07636ZM11.3758 3.0396C11.3544 2.93423 11.4076 2.96032 11.2929 2.77764C11.2929 2.77779 11.293 2.77793 11.293 2.77808C11.3334 2.97618 11.3757 3.23223 11.4547 3.44671C11.4648 3.30221 11.4071 3.2071 11.3758 3.0396ZM4.45361 5.91375C4.48869 5.95833 4.49696 5.73745 4.46247 5.69282C4.40809 5.62092 4.4016 5.84581 4.45361 5.91375ZM11.1534 7.38415C11.1085 7.57973 11.4359 7.40271 11.5693 7.03846C11.5819 7.00993 11.4392 7.20269 11.4576 7.13159C11.4602 7.12524 11.5243 7.01316 11.525 6.97821C11.5263 6.94914 11.4962 6.95648 11.4929 6.92814C11.4922 6.92315 11.4923 6.91702 11.4937 6.90928C11.5102 6.82114 11.6251 6.65449 11.6197 6.58213C11.6192 6.57307 11.5358 6.67143 11.5313 6.6773C11.4741 6.76334 11.4631 6.86707 11.4566 6.91133C11.4551 6.92117 11.4538 6.92813 11.4524 6.93133C11.41 7.02208 11.3779 6.98777 11.3577 7.00481C11.3193 7.03643 11.2928 7.11499 11.2881 7.11928C11.1781 7.22258 11.366 6.94573 11.3648 6.89581C11.3659 6.88579 11.3664 6.87712 11.3663 6.86951C11.365 6.77924 11.3076 6.83372 11.3897 6.57841C11.3984 6.55165 11.5185 6.24707 11.3239 6.61426C11.4575 6.05963 11.3204 6.46661 11.1877 6.7868C11.1384 6.90868 11.0758 7.01647 11.0605 7.05031C11.0367 7.1028 11.1192 7.0548 11.1146 7.09377C11.1045 7.18443 11.0197 7.30131 11.0733 7.32845C11.1881 7.38528 11.2459 7.18047 11.3295 7.07741C11.3453 7.10341 11.3651 7.12162 11.3731 7.15856C11.3681 7.10848 11.1596 7.37324 11.1532 7.38399C11.1532 7.38404 11.1533 7.38409 11.1534 7.38415ZM11.7549 5.38164C11.8134 5.20203 11.7339 5.20799 11.7887 5.04298C11.7254 4.8925 11.7162 5.18251 11.7069 5.21543C11.674 5.36726 11.5986 5.35337 11.5988 5.51013C11.6519 5.46424 11.7034 5.42713 11.7549 5.38164ZM11.2687 6.89792C11.2846 6.7781 11.1934 6.96018 11.1804 6.96216C11.1253 6.97901 11.1716 6.87107 11.2109 6.79754C11.2525 6.71994 11.3002 6.67597 11.2805 6.82978C11.2783 6.84902 11.2745 6.87169 11.2687 6.89792ZM6.31057 3.02366C6.26849 3.07061 6.32278 3.06407 6.29737 3.11368C6.271 3.16255 6.1351 3.29637 6.15792 3.3067C6.17977 3.31342 6.42697 3.07915 6.24106 3.35943C6.25847 3.35758 6.26445 3.36638 6.27742 3.36874C6.32956 3.29402 6.3856 3.22103 6.44407 3.15069C6.38243 3.1653 6.31863 3.18127 6.25915 3.19891C6.26683 3.13807 6.31666 3.13846 6.31824 3.13638C6.31821 3.13636 6.31818 3.13633 6.31814 3.13631C6.37624 3.05773 6.40704 2.91946 6.31057 3.02366ZM10.6605 1.85638C10.7245 1.78312 10.546 1.8032 10.4901 1.78959C10.4336 1.774 10.376 1.7099 10.3862 1.75933C10.4585 1.82072 10.6529 1.86292 10.6606 1.85628C10.6606 1.85631 10.6606 1.85635 10.6605 1.85638ZM11.7662 4.38349C11.7258 4.22968 11.7048 4.25788 11.7073 4.06409C11.6856 4.07462 11.6633 4.08517 11.6419 4.09555C11.6608 4.24154 11.723 4.22789 11.7195 4.39178C11.7193 4.39601 11.7192 4.40035 11.7189 4.40482C11.7171 4.43315 11.6592 4.37921 11.6871 4.50228C11.7118 4.46477 11.7389 4.42602 11.764 4.38704C11.7647 4.38585 11.7655 4.38467 11.7662 4.38349ZM11.5693 3.63013C11.6052 3.80331 11.8136 3.91437 11.6713 3.60158C11.6495 3.55526 11.5408 3.49957 11.5693 3.63013ZM7.5536 1.94416C7.28479 2.0832 7.60041 1.9428 7.6842 1.94024C7.08317 2.28163 7.74661 1.88608 7.85358 1.96191C7.91992 1.90514 8.05101 1.791 7.87705 1.83891C7.80513 1.85988 7.84096 1.87635 7.83677 1.87782C7.70808 1.92406 7.70397 1.87363 7.5536 1.94416ZM11.7082 5.69913C11.7091 5.68764 11.6742 5.69899 11.6747 5.66223C11.6754 5.62601 11.7113 5.54901 11.693 5.53794C11.6752 5.52697 11.632 5.68453 11.6352 5.73586C11.639 5.78796 11.7 5.80285 11.7082 5.69913ZM11.8641 4.54057C11.83 4.3903 11.7303 4.64624 11.7302 4.67632C11.7435 4.96097 11.8302 4.53729 11.8641 4.54057ZM8.15347 1.49304C7.80976 1.67045 8.10991 1.67608 8.34828 1.67092C8.3744 1.64993 8.40065 1.62905 8.42669 1.6085C8.31376 1.72261 8.10215 1.86096 8.60415 1.64864C8.31275 1.71061 8.54698 1.6238 8.54779 1.61918C8.54163 1.47169 8.13273 1.66084 8.1538 1.49294C8.15369 1.49297 8.15358 1.49301 8.15347 1.49304ZM11.5567 6.16679C11.5162 6.31879 11.3875 6.71256 11.5153 6.5547C11.5342 6.42509 11.5481 6.29521 11.5567 6.16679ZM5.03627 6.46303C4.98307 6.58748 4.96683 6.70595 4.92745 6.84796C5.01292 6.73171 4.99621 6.81819 4.9946 6.86755C4.99202 6.94277 5.04001 6.77303 5.04139 6.77278C5.08692 6.78541 5.07378 6.90458 5.12398 6.6422C5.12933 6.71066 5.13336 6.77736 5.13247 6.84752C5.1836 6.64578 5.21659 6.60289 5.27426 6.47789C5.16246 6.59136 5.24572 6.43228 5.2149 6.27868C5.19971 6.2021 5.06353 6.40099 5.0362 6.46351C5.03623 6.46335 5.03625 6.46319 5.03627 6.46303ZM7.77236 1.60618C7.7418 1.63662 7.71659 1.67198 7.6892 1.70492C7.65164 1.72292 7.6141 1.7414 7.57726 1.76066C7.56615 1.74912 7.55548 1.73661 7.54372 1.72604C7.49149 1.74609 7.52047 1.75574 7.50645 1.76474C7.50641 1.76467 7.50638 1.7646 7.50634 1.76453C7.30739 1.89675 7.2284 1.94449 7.04857 2.02205C7.07723 2.0586 7.10589 2.09515 7.13455 2.1317C7.1633 2.10353 7.19341 2.07597 7.22404 2.04944C7.22745 2.01669 7.23153 1.98384 7.23648 1.95081C7.28427 1.93606 7.33169 1.92318 7.37956 1.91161C7.40783 1.88501 7.44345 1.855 7.4689 1.83203C7.69339 1.86122 7.27837 1.98079 7.30746 2.03536C7.32066 2.05873 7.68415 1.86204 7.73482 1.82281C7.74179 1.8163 7.61852 1.7627 7.78237 1.74912C7.80943 1.74731 7.88943 1.93797 7.98629 1.72286C8.00091 1.69235 7.87854 1.59694 7.77236 1.60618ZM6.42763 2.47136C6.69241 2.38903 5.96105 2.94808 6.31061 2.73645C6.28065 2.86041 6.29523 2.84246 6.40939 2.7995C6.41932 2.79588 6.38073 2.86245 6.38671 2.85927C6.4769 2.80441 6.5519 2.70749 6.59102 2.74584C6.60821 2.72466 6.62476 2.70486 6.64231 2.68388C6.52474 2.72626 6.63034 2.57478 6.65386 2.49455C6.66432 2.45795 6.60529 2.5045 6.61365 2.47318C6.61684 2.4614 6.70214 2.40014 6.69318 2.38401C6.67217 2.34809 6.58674 2.35042 6.48321 2.40643C6.48318 2.4064 6.48316 2.40637 6.48313 2.40634C6.46402 2.42804 6.44649 2.44924 6.42763 2.47136ZM11.2358 1.92276C11.2088 2.00856 11.2982 2.13163 11.0632 1.93284C11.0641 1.95365 11.0648 1.9746 11.0646 1.99524C11.0999 2.02958 11.1324 2.06564 11.1645 2.10565C11.4435 2.10501 11.3688 2.5052 11.4143 2.25955C11.4192 2.23255 11.3367 2.1302 11.4411 2.2181C11.441 2.21793 11.441 2.21775 11.4409 2.21758C11.336 2.06838 11.3034 2.06795 11.2358 1.92276ZM10.1812 1.37321C9.76263 1.40145 10.6633 1.63793 10.5334 1.5593C10.5239 1.5424 10.1322 1.42993 10.1812 1.37321ZM12.0237 3.86081C11.9977 3.68003 11.9114 3.68322 11.8851 3.70635C11.8586 3.72949 11.9093 3.84714 11.9069 3.86399C11.8994 3.91806 11.8719 3.81024 11.8611 3.88053C11.859 3.90382 11.8716 4.21621 11.8757 4.22985C11.905 4.30618 11.96 4.18278 11.9706 4.20429C11.9951 4.25416 11.9901 4.32098 11.9984 4.36205C12.0019 4.37966 12.0077 4.39268 12.0192 4.3981C12.0541 4.41487 12.0565 4.39183 12.0468 4.3569C12.0336 4.31034 11.9978 4.24307 11.9948 4.22492C11.9795 4.12991 12.0243 4.13266 12.0235 4.05968C12.0225 3.98667 12.0007 3.94201 11.9941 3.87837C11.9919 3.85721 12.0249 3.86997 12.0237 3.86081ZM11.7369 3.30741C11.8422 3.47689 11.8032 3.0125 11.7686 2.96288C11.6816 2.82132 11.6911 3.22835 11.7369 3.30741ZM7.0086 2.21079C7.04854 2.14976 7.01793 2.15286 6.96158 2.18739C6.88444 2.23466 6.75573 2.33863 6.71326 2.39223C6.73935 2.39189 6.93976 2.28354 6.99669 2.22507C7.00185 2.21982 7.0059 2.21503 7.0086 2.21079ZM8.25453 1.46227C8.10661 1.52248 8.33815 1.55922 8.46301 1.52319C8.51919 1.43681 8.45254 1.46899 8.36905 1.49011C8.28569 1.51146 8.37052 1.41625 8.25453 1.46227ZM11.9272 5.83781C11.9427 5.8037 11.9705 5.24813 11.8997 5.55821C11.8979 5.58218 11.8304 5.96074 11.8297 5.9911C11.8358 6.05353 11.9059 5.92482 11.9272 5.83781ZM8.96283 1.1681C8.89598 1.24551 8.81667 1.26479 8.90757 1.31333C8.90768 1.3133 8.90778 1.31327 8.90789 1.31325C8.70924 1.38526 8.66392 1.25131 8.6204 1.26573C8.46804 1.31727 8.6406 1.37562 8.55281 1.43351C8.76891 1.34361 8.72226 1.4266 8.89374 1.3873C8.92093 1.3811 9.00156 1.33986 9.05202 1.30581C9.07314 1.29187 9.08941 1.27953 9.09464 1.27092C9.10646 1.25161 9.06934 1.22083 9.02539 1.1982C9.00321 1.18548 8.98001 1.17458 8.96283 1.1681ZM11.7178 6.59684C11.8056 6.4266 11.7663 6.23512 11.6691 6.47366C11.6199 6.58864 11.6635 6.69912 11.7178 6.59684ZM4.49338 3.75038C4.47579 3.7838 4.45847 3.81817 4.44143 3.85339C4.41949 3.78845 4.39717 3.72386 4.3745 3.65919C4.39536 3.70952 4.41591 3.75993 4.43639 3.81092C4.41446 3.68471 4.44422 3.61635 4.4933 3.75005C4.49333 3.75016 4.49336 3.75027 4.49338 3.75038ZM1.76388 1.02211C1.70862 1.06097 1.7138 1.20294 1.72693 1.19207C1.81789 1.11695 1.8385 0.971072 1.76388 1.02211ZM6.67009 2.21231C6.50434 2.34858 6.6959 2.33864 6.79743 2.2582C6.72307 2.29411 6.76329 2.13606 6.67009 2.21231ZM3.27429 1.02956C3.27902 1.05183 3.28328 1.07379 3.2888 1.09767C3.25707 1.03436 3.25579 1.01838 3.27429 1.02956ZM12.0505 5.77182C12.0678 5.74074 12.1164 5.49459 12.1078 5.45886C12.0929 5.38679 12.0018 5.56955 12.0009 5.68353C12.0011 5.69582 12.0349 5.80288 12.0506 5.77131C12.0506 5.77148 12.0505 5.77165 12.0505 5.77182ZM4.46737 3.45841C4.46634 3.45907 4.46522 3.45915 4.46406 3.45875C4.46517 3.45871 4.46624 3.45836 4.46737 3.45841ZM0.822945 5.78905C0.824654 5.78749 0.826425 5.78656 0.828227 5.78649C0.826539 5.78722 0.824824 5.78848 0.822945 5.78905ZM12.1812 4.00602C12.285 3.90812 12.1942 3.72774 12.1607 3.88548C12.1591 3.89427 12.1788 3.98616 12.1812 4.00602Z" fill="#444141"/>
</svg>